<?xml version="1.0" encoding="UTF-8"?>
<svg version="1.1" xmlns="http://www.w3.org/2000/svg" width="1024" height="1024">
<path d="M0 0 C337.92 0 675.84 0 1024 0 C1024 337.92 1024 675.84 1024 1024 C686.08 1024 348.16 1024 0 1024 C0 686.08 0 348.16 0 0 Z " fill="#F5F2EF" transform="translate(0,0)"/>
<path d="M0 0 C4.37581326 0.00041261 8.75160114 -0.01067272 13.12740219 -0.02011514 C21.67672657 -0.03663058 30.22602336 -0.04222036 38.77536238 -0.04333989 C45.73407175 -0.04429481 52.69277213 -0.04842709 59.65147865 -0.05474114 C79.43970644 -0.07232717 99.22791267 -0.08158407 119.01614834 -0.0800802 C120.07986726 -0.08000028 121.14358619 -0.07992037 122.23953903 -0.07983804 C123.30457697 -0.07975628 124.36961492 -0.07967451 125.46692675 -0.07959028 C142.71381734 -0.07877796 159.96062048 -0.09790884 177.2074858 -0.12611477 C194.97427402 -0.15493862 212.74101971 -0.16864988 230.50783187 -0.16692722 C240.45931242 -0.16626663 250.41070126 -0.17161279 260.36216056 -0.19328332 C268.83631617 -0.21162067 277.31033849 -0.21574055 285.78450549 -0.20226447 C290.09569416 -0.19579768 294.40662806 -0.1953853 298.71779144 -0.21297097 C344.43503642 -0.3875775 387.39927821 6.57408782 421.57132614 39.29076743 C422.31769332 39.97397056 423.06406051 40.65717368 423.83304489 41.36107993 C448.73475338 64.91557557 460.63014876 100.66823467 461.66412282 134.31003833 C461.7021715 137.62524309 461.70946045 140.93909193 461.70503891 144.25451255 C461.70843724 146.14735378 461.70843724 146.14735378 461.71190423 148.07843423 C461.71797416 151.55139427 461.71789435 155.02433007 461.71670985 158.49729419 C461.71650461 162.25483096 461.72203638 166.0123602 461.72676742 169.76989341 C461.73504871 177.12147319 461.73782114 184.47304495 461.7383798 191.82462901 C461.73885627 197.80675626 461.74091757 203.78888088 461.74408042 209.7710073 C461.75288105 226.76440521 461.75750087 243.75779683 461.75674995 260.75119704 C461.75669002 262.12333321 461.75669002 262.12333321 461.75662887 263.52318931 C461.75656755 264.89701855 461.75656755 264.89701855 461.75650499 266.29860193 C461.75609896 281.12575601 461.76565929 295.95288465 461.77976724 310.78003138 C461.79416831 326.0367706 461.80103534 341.29349744 461.80017346 356.55024362 C461.79984272 365.10263273 461.80253549 373.65499519 461.81335151 382.20737815 C461.82250589 389.49210448 461.82459167 396.77679208 461.81784209 404.06152171 C461.81460126 407.77021709 461.81443062 411.47883836 461.82319534 415.18752646 C461.86384643 433.52718995 461.83966205 451.85745939 457.82132614 469.85326743 C457.65141159 470.62589927 457.48149704 471.3985311 457.30643356 472.19457603 C450.13663966 503.45728959 433.27043825 532.13290138 405.88382614 549.91576743 C403.47283669 551.42181286 401.03299964 552.8692742 398.57132614 554.29076743 C397.97255661 554.63881431 397.37378707 554.98686118 396.75687301 555.34545493 C388.64930245 559.95853251 380.27357133 563.2983491 371.38382614 566.10326743 C370.52539108 566.38122153 369.66695602 566.65917563 368.78250778 566.94555259 C347.67830452 573.23565798 325.84500458 572.73068643 304.06182301 572.68294144 C299.41960726 572.67607925 294.77742376 572.68666724 290.13521469 572.6948812 C281.06912115 572.70814516 272.00310258 572.70537377 262.93700624 572.69664328 C255.56163275 572.68983803 248.18628011 572.68896222 240.81090438 572.69221473 C239.7568495 572.69267443 238.70279461 572.69313413 237.61679867 572.69360776 C235.47478024 572.69456704 233.33276181 572.69553968 231.19074339 572.69652553 C211.15620004 572.70505793 191.12169804 572.69527916 171.08716148 572.67912443 C153.93716834 572.66572322 136.78723615 572.66805192 119.63724411 572.68188071 C99.66906233 572.69797465 79.70091668 572.70423416 59.73272932 572.69504392 C57.59906885 572.69408838 55.46540837 572.69314527 53.33174789 572.69221473 C51.75749109 572.69152049 51.75749109 572.69152049 50.15143111 572.69081222 C42.79422027 572.68823375 35.43703255 572.69256853 28.07982528 572.69965339 C19.100537 572.70811111 10.12132729 572.70569917 1.14204788 572.68981116 C-3.42974513 572.6819855 -8.00140767 572.67873803 -12.57319939 572.68875861 C-57.4480714 572.77863787 -96.92916695 566.39701423 -130.15523636 533.59936118 C-155.75322563 506.37673172 -166.58138579 471.52726385 -166.57584488 434.70182395 C-166.57915228 433.3591988 -166.58287966 432.01657463 -166.58698636 430.67395169 C-166.59691473 427.01296184 -166.60070819 423.35198837 -166.60337567 419.69098699 C-166.60730614 415.73093372 -166.61688223 411.7708931 -166.62558854 407.810848 C-166.64527425 398.26241044 -166.65540831 388.71397196 -166.66431633 379.16551921 C-166.6687115 374.65709512 -166.67407502 370.14867219 -166.6793052 365.64024901 C-166.69630827 350.63372614 -166.71080003 335.62720396 -166.71805394 320.62067294 C-166.71996348 316.73376758 -166.72188387 312.84686222 -166.72383988 308.95995688 C-166.72456549 307.51104736 -166.72456549 307.51104736 -166.72530576 306.03286693 C-166.73359737 290.4026312 -166.75892375 274.7724722 -166.79142056 259.14226993 C-166.82458766 243.05721743 -166.84251131 226.97220382 -166.84569818 210.88711697 C-166.84785417 201.87125533 -166.85646865 192.85550566 -166.88215935 183.83967757 C-166.90399858 176.15829143 -166.91185237 168.4770445 -166.90219257 160.79563083 C-166.89768602 156.88598057 -166.8993177 152.97661671 -166.91895401 149.06700683 C-167.1142844 107.84153891 -158.48050189 70.1784216 -128.97017777 39.78881431 C-110.53421243 21.45770391 -86.85024304 9.17157031 -61.42867386 3.97826743 C-60.34743241 3.75735435 -60.34743241 3.75735435 -59.24434769 3.53197837 C-56.64617059 3.05113684 -54.04404409 2.66860078 -51.42867386 2.29076743 C-50.28361406 2.12320127 -49.13855425 1.9556351 -47.95879567 1.78299117 C-32.04302952 -0.30657139 -16.01836024 -0.00944631 0 0 Z " fill="#91C5DF" transform="translate(363.42867386341095,119.70923256874084)"/>
<path d="M0 0 C1.95144421 -0.00576172 1.95144421 -0.00576172 3.94231153 -0.01163983 C5.39464527 -0.01085954 6.84697896 -0.00998074 8.29931259 -0.00901413 C9.8354642 -0.01159694 11.37161515 -0.01460986 12.90776515 -0.01801753 C17.1402632 -0.02610072 21.37274431 -0.02787784 25.60524917 -0.028615 C30.16570476 -0.03046327 34.72615152 -0.03800947 39.28660202 -0.04475021 C49.2638477 -0.0583435 59.24108938 -0.06435983 69.21834278 -0.06876087 C75.44592309 -0.07152166 81.67350183 -0.07575871 87.90108109 -0.08026505 C105.13682711 -0.09245909 122.37257189 -0.10275809 139.60832214 -0.10614014 C140.71187484 -0.1063597 141.81542754 -0.10657927 142.95242123 -0.10680549 C144.05864432 -0.10702377 145.1648674 -0.10724204 146.3046124 -0.10746694 C148.54631503 -0.10791041 150.78801767 -0.10835697 153.02972031 -0.10880661 C154.69767025 -0.10913875 154.69767025 -0.10913875 156.39931616 -0.10947761 C174.41985766 -0.11342618 192.44035873 -0.13088139 210.4608846 -0.15416613 C228.95366793 -0.17786859 247.44643096 -0.19034149 265.93922973 -0.19150805 C276.32572108 -0.19242545 286.71215976 -0.19819387 297.09863663 -0.21632767 C305.94260796 -0.23171375 314.78651037 -0.23685795 323.63049254 -0.22858956 C328.1437264 -0.22467774 332.65682137 -0.22563856 337.17003822 -0.23964691 C341.30174375 -0.25235395 345.43320558 -0.25121655 349.56491062 -0.2390562 C351.05955434 -0.23709364 352.55421513 -0.24020338 354.04883483 -0.24890056 C368.79065363 -0.3292513 368.79065363 -0.3292513 373.82513046 3.13142776 C378.59370999 8.4046548 379.55316634 13.40295565 379.45331955 20.32007217 C379.46041394 21.21203318 379.46750832 22.10399419 379.47481769 23.02298433 C379.49233887 25.99471808 379.47432248 28.96513366 379.45623398 31.93684769 C379.46137521 34.07454904 379.46865803 36.21224614 379.47791672 38.34993362 C379.49641826 44.14576239 379.48349737 49.94113059 379.46382642 55.73694015 C379.44741792 61.81272128 379.45625638 67.88847375 379.46134567 73.96426773 C379.46586587 84.17216195 379.45000544 94.37987291 379.42205429 104.58772659 C379.39004581 116.3676936 379.39000186 128.14732931 379.40726906 139.92731971 C379.42317159 151.27881256 379.41637382 162.63018466 379.39933205 173.98167229 C379.39248242 178.80233181 379.39347268 183.62289394 379.400877 188.44355202 C379.4085768 194.13100002 379.3962933 199.81807439 379.36902809 205.50545883 C379.36218021 207.58503041 379.36200733 209.66463712 379.36924362 211.74420738 C379.42346256 229.36544259 377.47682102 242.95459747 365.07513046 256.38142776 C354.96780984 266.06439523 343.03392008 267.43259524 329.65028 267.3988533 C328.31620264 267.40259412 326.98212746 267.40719735 325.64805573 267.41258395 C321.99709323 267.42477628 318.34622263 267.42455794 314.69524443 267.4221952 C310.75166335 267.42178607 306.80811135 267.43283536 302.86454391 267.44231033 C295.1435844 267.458901 287.42265542 267.46441902 279.70167957 267.46553509 C273.42289633 267.46648655 267.14412315 267.47060176 260.86534309 267.47693634 C243.0490976 267.49454406 225.23287616 267.50377603 207.4166219 267.50227539 C205.97685 267.50215552 205.97685 267.50215552 204.50799179 267.50203323 C203.54696665 267.50195147 202.58594151 267.50186971 201.5957944 267.50178547 C186.02718151 267.50097287 170.45866544 267.52010516 154.89008055 267.54830997 C138.88991203 267.57706702 122.88979069 267.59084868 106.88959569 267.58912241 C97.91254822 267.58845945 88.93560224 267.59391053 79.95857811 267.61547852 C72.31418386 267.63372755 64.66993708 267.63800723 57.02553044 267.62445967 C53.12917338 267.61794852 49.23309894 267.61774518 45.3367691 267.63516617 C41.76183567 267.65098497 38.18740686 267.64794477 34.61248507 267.6305979 C32.72363471 267.6261147 30.83476814 267.64111604 28.94597989 267.65707719 C17.23605447 267.5633873 6.62219971 265.17085468 -2.17486954 257.13142776 C-3.47424454 255.98674026 -3.47424454 255.98674026 -4.79986954 254.81892776 C-13.36250777 245.12962661 -17.32868418 235.28096936 -17.31531143 222.38342667 C-17.31828255 221.49064996 -17.32125368 220.59787326 -17.32431483 219.67804271 C-17.33300074 216.68031721 -17.33450999 213.68263165 -17.33600235 210.68489456 C-17.34063057 208.53805328 -17.34565523 206.39121282 -17.35104752 204.24437332 C-17.36417242 198.40754978 -17.37061656 192.57073774 -17.37505817 186.73390174 C-17.37798851 183.08814257 -17.38209323 179.44238654 -17.38656235 175.79662895 C-17.40023699 164.39228985 -17.40990403 152.98795793 -17.41376424 141.58361119 C-17.41824624 128.41430798 -17.43580095 115.2451085 -17.46476483 102.07583684 C-17.48637109 91.89908341 -17.49646794 81.72235919 -17.49780536 71.54558307 C-17.49885406 65.46607624 -17.50477595 59.38666692 -17.52262497 53.30718422 C-17.5390875 47.58871227 -17.54126992 41.87041132 -17.53248596 36.15192413 C-17.53171464 34.0536942 -17.5360708 31.95545515 -17.54594421 29.85724831 C-17.55863841 26.9914214 -17.55280051 24.12620247 -17.54236221 21.26037979 C-17.55041862 20.43138048 -17.55847502 19.60238118 -17.56677556 18.74826068 C-17.52188812 13.47379882 -16.65841471 9.81160572 -14.17486954 5.13142776 C-9.58866813 0.77453643 -6.19516541 0.00684505 0 0 Z " fill="#F4F2EF" transform="translate(330.1748695373535,305.8685722351074)"/>
<path d="M0 0 C5.38984756 4.12090909 8.69601958 10.47157833 10.3125 16.9375 C10.3125 22.2175 10.3125 27.4975 10.3125 32.9375 C63.1125 32.9375 115.9125 32.9375 170.3125 32.9375 C170.3125 27.3275 170.3125 21.7175 170.3125 15.9375 C171.89979017 11.88109179 172.90867276 9.30285813 175.3125 5.9375 C175.910625 5.09316406 176.50875 4.24882812 177.125 3.37890625 C181.28168677 -1.26025309 187.48114931 -4.23626089 193.55859375 -5.546875 C200.97901172 -5.84548337 208.67143028 -2.70071288 214.3125 1.9375 C220.68978772 9.07945051 222.64593713 15.35266093 222.4375 24.8125 C222.42847656 25.59625 222.41945313 26.38 222.41015625 27.1875 C222.38678063 29.10430055 222.35091653 31.02094191 222.3125 32.9375 C223.97466553 32.91393433 223.97466553 32.91393433 225.67041016 32.88989258 C229.84888205 32.83489086 234.02732317 32.80089911 238.20605469 32.77270508 C240.00200817 32.75777625 241.79792623 32.73742576 243.59375 32.71118164 C263.00014652 32.43503035 279.92333959 34.51745984 295.25 47.6875 C304.58943427 56.76597949 311.72694252 69.0746539 312.44245183 82.34827405 C312.4459478 83.61739 312.4459478 83.61739 312.44951439 84.91214466 C312.4571262 86.38575308 312.4571262 86.38575308 312.46489179 87.88913137 C312.46538955 88.96090066 312.46588731 90.03266996 312.46640015 91.13691711 C312.4707824 92.28146195 312.47516465 93.42600679 312.4796797 94.6052348 C312.4930591 98.44947135 312.49924474 102.29368498 312.50537109 106.13793945 C312.51274834 108.89100927 312.52153718 111.64407432 312.53015137 114.3971405 C312.5546481 122.66661214 312.56930044 130.93608972 312.58221143 139.20558646 C312.58592598 141.54352793 312.58989901 143.88146882 312.5939641 146.2194097 C312.61920808 160.75422209 312.64124972 175.28903547 312.65369225 189.82386494 C312.6566217 193.18897314 312.65958339 196.55408132 312.66259766 199.91918945 C312.66371673 201.17368279 312.66371673 201.17368279 312.66485842 202.45351943 C312.67749577 215.98336339 312.71069822 229.51307547 312.75239949 243.04285786 C312.79491424 256.95128689 312.81839843 270.8596486 312.82361281 284.7681424 C312.82701661 292.56998338 312.83864896 300.37161841 312.87171555 308.17339516 C312.899849 314.82196956 312.9106577 321.47029579 312.89952008 328.11892507 C312.8943665 331.50547696 312.89978165 334.89109321 312.92198563 338.27763748 C313.06635808 361.57694647 310.23762588 380.87386263 293.23828125 398.20703125 C289.06140866 402.24240899 284.42335813 405.21024666 279.3125 407.9375 C278.03826172 408.64326172 278.03826172 408.64326172 276.73828125 409.36328125 C260.06242845 417.81337706 241.03532257 416.38096256 222.87535119 416.34433305 C218.88208512 416.33956089 214.88886535 416.35214651 210.89561462 416.36235046 C203.09317898 416.37946408 195.29082412 416.38039418 187.48837459 416.37513756 C181.14210819 416.3710814 174.7958655 416.3725565 168.44960022 416.37788582 C167.54329378 416.37863424 166.63698733 416.37938266 165.70321706 416.38015376 C163.8615603 416.38168537 162.01990354 416.38322372 160.1782468 416.38476873 C142.94514707 416.39846636 125.71209286 416.39307494 108.47899419 416.38158352 C92.74155002 416.37164966 77.00422341 416.38459933 61.26679736 416.40851771 C45.07086363 416.43294582 28.87498457 416.44250774 12.6790328 416.43586498 C3.60085218 416.43238157 -5.47723806 416.43454689 -14.55540466 416.45211601 C-22.28150557 416.46688434 -30.00745239 416.46741301 -37.73355043 416.4500451 C-41.66880809 416.44157148 -45.60379103 416.43929562 -49.53903389 416.45469666 C-73.67168818 416.54222379 -95.03119131 415.9624558 -113.484375 398.1640625 C-114.21140625 397.42929687 -114.9384375 396.69453125 -115.6875 395.9375 C-116.31140625 395.34710937 -116.9353125 394.75671875 -117.578125 394.1484375 C-121.61619568 390.01941928 -124.30205391 385.34024147 -126.9375 380.25 C-127.2670166 379.62730225 -127.5965332 379.00460449 -127.93603516 378.36303711 C-135.09517328 363.83419798 -134.11596185 348.32371853 -134.07568359 332.54736328 C-134.07975314 329.87029968 -134.08498966 327.193261 -134.09161377 324.51620483 C-134.1048946 318.02313603 -134.10209848 311.53017177 -134.09337585 305.03709902 C-134.08657615 299.75482529 -134.08569242 294.47258067 -134.0889473 289.1903038 C-134.089407 288.43594704 -134.08986669 287.68159027 -134.09034032 286.9043742 C-134.09129959 285.37146211 -134.09227223 283.83855002 -134.0932581 282.30563794 C-134.10179575 267.95920827 -134.09200406 253.61283627 -134.075857 239.26641606 C-134.06246076 226.98438521 -134.06477934 214.70243947 -134.07861328 202.42041016 C-134.09470735 188.1253068 -134.1009662 173.83025393 -134.09177649 159.53514278 C-134.09082094 158.00753777 -134.08987783 156.47993275 -134.0889473 154.95232773 C-134.08848447 154.20090704 -134.08802164 153.44948635 -134.08754479 152.67529533 C-134.08496594 147.40677956 -134.08930203 142.13829608 -134.09638596 136.86978531 C-134.10484407 130.43842495 -134.10243126 124.00717427 -134.08654372 117.5758263 C-134.0787176 114.30097559 -134.07711597 111.02634249 -134.08549118 107.75148773 C-134.13824561 85.01762818 -133.30953378 65.57238701 -116.4765625 48.56640625 C-104.66093993 37.42927181 -89.64170174 32.55259232 -73.62109375 32.7421875 C-72.70159439 32.7450174 -71.78209503 32.74784729 -70.83473206 32.75076294 C-67.93134907 32.76185416 -65.02828791 32.78693737 -62.125 32.8125 C-60.14258262 32.82254412 -58.16016034 32.83166745 -56.17773438 32.83984375 C-51.34753445 32.86175714 -46.51757157 32.89620919 -41.6875 32.9375 C-41.70055176 31.76396973 -41.71360352 30.59043945 -41.72705078 29.38134766 C-41.73760584 27.82975462 -41.74784303 26.27815941 -41.7578125 24.7265625 C-41.7719519 23.56846069 -41.7719519 23.56846069 -41.78637695 22.38696289 C-41.82539387 14.29311972 -40.08380311 8.64327365 -34.5 2.54296875 C-24.16594614 -6.61068672 -11.62339368 -7.23575501 0 0 Z M-106.5625 128.9375 C-109.1703269 133.57363671 -108.83333336 138.47816913 -108.82794189 143.66531372 C-108.83091302 144.55597373 -108.83388414 145.44663374 -108.8369453 146.36428344 C-108.8456313 149.35500703 -108.84714048 152.34569058 -108.84863281 155.33642578 C-108.85326112 157.47839951 -108.8582858 159.62037242 -108.86367798 161.76234436 C-108.87680433 167.58697303 -108.88324762 173.41159017 -108.88768864 179.23623133 C-108.8906195 182.87598355 -108.89472438 186.51573261 -108.89919281 190.15548325 C-108.91286951 201.54541227 -108.92253484 212.9353341 -108.9263947 224.32527077 C-108.93087343 237.46907384 -108.94841208 250.61277281 -108.9773953 263.75654423 C-108.99902361 273.91805805 -109.00909963 284.07954262 -109.01043582 294.24107921 C-109.01148319 300.30894463 -109.01737643 306.37671221 -109.03525543 312.44455338 C-109.05175547 318.15564771 -109.05388213 323.86657088 -109.04511642 329.57768059 C-109.04434704 331.66981274 -109.0486757 333.76195416 -109.05857468 335.85406303 C-109.07133071 338.71883893 -109.06539743 341.58301196 -109.05499268 344.44778442 C-109.06304908 345.26804521 -109.07110548 346.08830599 -109.07940602 346.93342316 C-108.98380431 358.25367812 -104.73533637 368.24250512 -97.25 376.6875 C-95.9815625 377.80125 -95.9815625 377.80125 -94.6875 378.9375 C-94.18734375 379.42863281 -93.6871875 379.91976563 -93.171875 380.42578125 C-85.93959542 387.23561459 -76.87099694 390.05370782 -67.04854584 390.07172108 C-65.91798751 390.07617892 -64.78742919 390.08063676 -63.62261152 390.08522969 C-62.38537604 390.08504533 -61.14814055 390.08486097 -59.87341309 390.08467102 C-57.89615699 390.09018605 -57.89615699 390.09018605 -55.87895632 390.0958125 C-52.2212396 390.1058132 -48.56353928 390.10954618 -44.90581083 390.11220181 C-40.96013921 390.11611063 -37.0144805 390.12568861 -33.06881714 390.13441467 C-23.54016874 390.15416342 -14.0115193 390.16424357 -4.48285556 390.17314246 C0.00731554 390.17752823 4.49748547 390.18289431 8.98765564 390.18813133 C23.91932175 390.20514251 38.85098713 390.21963569 53.78266144 390.22688007 C57.65621441 390.22878989 61.52976737 390.23071023 65.40332031 390.23266602 C66.84740278 390.23339163 66.84740278 390.23339163 68.32065862 390.2341319 C83.908857 390.24242851 99.49697854 390.2677597 115.08514339 390.30024669 C131.09877172 390.33334755 147.11236105 390.3513316 163.12602377 390.35452431 C172.11318318 390.35668668 181.10023056 390.36539512 190.08735657 390.39098549 C197.74279514 390.41273392 205.39809447 390.42072261 213.05356044 390.41101871 C216.95597807 390.40648588 220.85810867 390.40830041 224.7604866 390.42778015 C228.34108181 390.44549837 231.92118246 390.44434501 235.50178355 390.42888286 C237.39376634 390.42541014 239.28575485 390.44146831 241.17766428 390.45848733 C252.89755999 390.37114549 263.51442254 387.97645131 272.3125 379.9375 C272.91578125 379.43605469 273.5190625 378.93460938 274.140625 378.41796875 C281.84487425 371.53438953 286.6086278 361.04208162 287.50029266 350.77520275 C287.57697078 348.41983948 287.59356708 346.07181341 287.58665466 343.71520996 C287.59189134 342.81972112 287.59712802 341.92423228 287.60252339 341.00160742 C287.61745484 338.01860379 287.61822702 335.03577272 287.61889648 332.05273438 C287.62652234 329.90692355 287.63495057 327.76111545 287.64411926 325.61531067 C287.6660233 319.79931172 287.67485715 313.98336532 287.67994571 308.16732979 C287.68359274 304.53225713 287.68983447 300.89719817 287.6969471 297.26213074 C287.72142295 284.57692868 287.73449042 271.89176743 287.73803711 259.20654297 C287.74167559 247.3867037 287.77159831 235.56712358 287.81344169 223.74736357 C287.84812936 213.59258748 287.86358525 203.4378974 287.86428314 193.28306246 C287.86507617 187.22084156 287.87382804 181.15888507 287.90228081 175.09672546 C287.92843651 169.39697661 287.93068027 163.69771195 287.91462517 157.99793053 C287.91280898 155.90817395 287.91951659 153.81838967 287.93544388 151.72869301 C287.95588873 148.87181932 287.94536196 146.01664257 287.92723083 143.15979004 C287.94703079 141.92475306 287.94703079 141.92475306 287.96723074 140.66476583 C287.8809108 134.69447734 286.35923581 130.4073567 282.3125 125.9375 C275.84227834 121.49533241 267.93156038 122.51650184 260.3572998 122.54981995 C258.81769278 122.5456452 257.27808883 122.54016691 255.73849058 122.53350013 C251.51497184 122.51904546 247.29164824 122.52329029 243.06811881 122.53066695 C238.51044618 122.5353962 233.95281592 122.52289099 229.39515686 122.51264954 C220.46954352 122.49545206 211.54400055 122.49462341 202.61837494 122.49986244 C195.3645895 122.50390323 188.11082486 122.50246167 180.85704041 122.49711418 C179.82480015 122.49636576 178.7925599 122.49561734 177.72903964 122.49484624 C175.63208949 122.49331477 173.53513935 122.49177642 171.43818921 122.49023127 C151.77324959 122.47650305 132.10834976 122.48194642 112.44341105 122.49341648 C94.4489691 122.50335153 76.45462993 122.49040405 58.46020383 122.46648229 C39.98536497 122.44210677 21.51057402 122.43247946 3.03571939 122.43913502 C-7.33730655 122.44263038 -17.71025341 122.44037414 -28.08326721 122.42288399 C-36.91252892 122.40818146 -45.74165585 122.40750114 -54.57091486 122.4249549 C-59.07610796 122.43348292 -63.58106007 122.43557053 -68.08624077 122.42030334 C-72.21046183 122.40650005 -76.33423445 122.41116289 -80.45842928 122.43054258 C-81.95025802 122.43431631 -83.4421223 122.43134118 -84.93391949 122.42093093 C-96.99731235 122.28356872 -96.99731235 122.28356872 -106.5625 128.9375 Z " fill="#002B56" transform="translate(421.6875,183.0625)"/>
<path d="M0 0 C4.80451474 2.94822496 7.38003902 6.66365796 9 12 C10.01501663 19.62800378 9.22881072 25.46928685 5 32 C1.66238588 35.89379424 -1.97210612 39.46859119 -5.62426758 43.0625 C-6.71780183 44.15326498 -7.81044488 45.24492403 -8.90226746 46.33740234 C-11.85642884 49.28845238 -14.82265683 52.22709668 -17.79111314 55.16375732 C-20.9049973 58.24878544 -24.00704743 61.34566571 -27.11027527 64.44140625 C-32.99078487 70.30434613 -38.88098501 76.1574433 -44.77513379 82.00666809 C-53.41042191 90.57682088 -62.03319072 99.15955546 -70.65339947 107.74487305 C-71.28771525 108.37661942 -71.92203103 109.00836578 -72.5755685 109.65925598 C-73.8412031 110.9197913 -75.10680421 112.18036025 -76.3723709 113.44096375 C-80.06175112 117.11516027 -83.75465768 120.78576456 -87.45071185 124.45324707 C-89.75677048 126.742189 -92.06080583 129.03316044 -94.36445808 131.32452393 C-95.42649433 132.37994185 -96.48942305 133.43446265 -97.55334854 134.48797607 C-102.75122554 139.63562932 -107.86478701 144.80835511 -112.61450768 150.37868214 C-116.1399983 154.50424878 -120.00918033 158.32074361 -123.8125 162.1875 C-125.07030273 163.50137695 -125.07030273 163.50137695 -126.35351562 164.84179688 C-133.6479163 172.23711931 -140.71519381 177.47950162 -151.3828125 177.6640625 C-158.8031157 175.781299 -164.39608993 170.04388237 -169.63769531 164.76635742 C-170.35420258 164.05671341 -171.07070984 163.3470694 -171.80892944 162.61592102 C-174.15634694 160.28668569 -176.4926348 157.94665886 -178.828125 155.60546875 C-180.4658426 153.97231631 -182.10393042 152.33953505 -183.74237061 150.70710754 C-187.16662936 147.29176253 -190.58517929 143.87082557 -194 140.44604492 C-198.36826172 136.06628295 -202.75219621 131.70259677 -207.14076614 127.34319592 C-210.52449467 123.97784301 -213.89883284 120.60319616 -217.2705307 117.22579384 C-218.88293281 115.61323876 -220.49842695 114.00376909 -222.11710358 112.39751244 C-224.38111038 110.1484423 -226.63191506 107.8869127 -228.87988281 105.62182617 C-229.544888 104.96648895 -230.20989319 104.31115173 -230.89505005 103.63595581 C-235.57284884 98.88354909 -239.29344266 93.9277912 -240.49609375 87.2421875 C-240.34208673 81.02030375 -239.71895167 76.68003007 -235.08984375 72.1171875 C-230.38679094 67.90065739 -227.79717906 65.84195747 -221.375 65.6875 C-220.37210937 65.65011719 -219.36921875 65.61273438 -218.3359375 65.57421875 C-208.22931847 66.86417364 -202.01121102 74.4474461 -195.23828125 81.3359375 C-194.11906804 82.46008375 -192.9990327 83.58341201 -191.8782196 84.70596313 C-189.53989245 87.05189927 -187.20814747 89.40410864 -184.8815918 91.76171875 C-181.91125395 94.7716516 -178.93023041 97.77069869 -175.94488239 100.76573753 C-173.08082448 103.63980657 -170.2217012 106.51876271 -167.36328125 109.3984375 C-166.55437156 110.21244081 -166.55437156 110.21244081 -165.72912025 111.04288864 C-164.19083502 112.59285971 -162.65603461 114.14619663 -161.12231445 115.70068359 C-160.25153763 116.58130463 -159.3807608 117.46192566 -158.4835968 118.36923218 C-155.85263272 121.15609985 -153.42376162 124.0325933 -151 127 C-147.12520676 124.46952278 -143.90641449 122.07588431 -140.94296265 118.51361084 C-136.21691899 113.01285092 -131.08934335 107.91726088 -125.97509766 102.78222656 C-124.87521018 101.67442033 -123.77549893 100.5664391 -122.6759491 99.45829773 C-119.09235564 95.84871693 -115.50351792 92.24437519 -111.9140625 88.640625 C-110.67261611 87.39381173 -109.43117505 86.14699316 -108.18973923 84.90016937 C-103.025776 79.71462306 -97.86039068 74.53050026 -92.69127846 69.35008621 C-85.30824981 61.95080049 -77.93386024 54.54313759 -70.57118762 47.12359452 C-65.37718349 41.89085238 -60.17359419 36.66776541 -54.96282804 31.45171523 C-51.85721486 28.34245769 -48.75588357 25.22919913 -45.66475296 22.10553741 C-42.75850394 19.16913521 -39.84050991 16.24492798 -36.91327858 13.32944679 C-35.84514586 12.26153411 -34.78123572 11.18937746 -33.72206306 10.11257744 C-23.64603184 -0.12187229 -14.20460571 -6.92249772 0 0 Z " fill="#012C57" transform="translate(634,346)"/>
<path d="M0 0 C48.2 0 48.2 0 57 7 C61.97970949 12.00737455 64.27990706 16.73935784 64.4375 23.8125 C64.32817805 29.73774989 63.05076735 33.64568677 59 38 C57.05440673 39.60386143 55.21544841 40.76347065 53 42 C55.28273873 43.75595287 57.48118907 45.27066885 60 46.6875 C63.92952371 49.71650786 65.71712126 52.20001548 67 57 C67.91377545 65.44776076 68.09733335 73.8608371 63 81 C57.31732918 87.84379347 51.84598036 89.05133988 43 92 C28.81 92 14.62 92 0 92 C0 61.64 0 31.28 0 0 Z " fill="#012A54" transform="translate(261,720)"/>
<path d="M0 0 C4.95 0 9.9 0 15 0 C15.33 10.89 15.66 21.78 16 33 C17.65 31.35 19.3 29.7 21 28 C27.66729297 22.6874766 35.88888442 23.15973644 44 24 C50.62015015 25.56284712 56.67067326 28.66753658 61 34 C67.56667121 44.94940426 69.94782506 55.59478754 67.31640625 68.30078125 C64.06581061 78.91579688 58.80224145 85.72587363 49 91 C41.99392556 93.96410842 33.28713142 94.42149272 26.04296875 92.01953125 C21.62999734 89.91965466 18.75394359 88.10460382 16 84 C15.67 86.31 15.34 88.62 15 91 C10.05 91 5.1 91 0 91 C0 60.97 0 30.94 0 0 Z " fill="#022852" transform="translate(602,720)"/>
<path d="M0 0 C4.62 0 9.24 0 14 0 C14 29.7 14 59.4 14 90 C9.38 90 4.76 90 0 90 C-0.495 86.04 -0.495 86.04 -1 82 C-1.3403125 82.47050781 -1.680625 82.94101562 -2.03125 83.42578125 C-6.56560902 89.25050307 -10.46405315 91.428188 -17.7578125 92.34765625 C-26.61555784 92.79863806 -34.30935211 90.59463049 -41.390625 85.16796875 C-49.78209263 77.28931303 -52.94531159 67.89744662 -53.3125 56.5625 C-53.09915727 47.01541263 -49.98565481 38.2599851 -43.3671875 31.27734375 C-37.13494448 25.59007265 -31.01038984 23.42846193 -22.6875 23.5 C-21.94419434 23.50354492 -21.20088867 23.50708984 -20.43505859 23.51074219 C-14.19321769 23.69820117 -8.99189416 25.06448179 -4 29 C-3.01 30.32 -2.02 31.64 -1 33 C-0.67 22.11 -0.34 11.22 0 0 Z " fill="#022851" transform="translate(562,833)"/>
<path d="M0 0 C16 0 16 0 19.87890625 3.3828125 C20.83064815 4.92977023 21.7229855 6.51437706 22.5625 8.125 C23.61639564 9.88276757 24.67247349 11.63922818 25.73046875 13.39453125 C26.52590088 14.77825928 26.52590088 14.77825928 27.33740234 16.18994141 C30.11759903 20.88892289 33.26160505 25.33048253 36.375 29.8125 C37.62686265 31.64456196 38.87684443 33.47791046 40.125 35.3125 C40.7540625 36.23546875 41.383125 37.1584375 42.03125 38.109375 C44.1057069 41.15520457 46.17800105 44.2024979 48.25 47.25 C48.9404541 48.26473389 49.6309082 49.27946777 50.34228516 50.32495117 C51.67619268 52.28543957 53.0092299 54.24652047 54.34130859 56.20825195 C54.93766113 57.08441162 55.53401367 57.96057129 56.1484375 58.86328125 C56.67614746 59.63969971 57.20385742 60.41611816 57.74755859 61.21606445 C58.87855521 62.93602877 58.87855521 62.93602877 60 64 C60 42.88 60 21.76 60 0 C65.28 0 70.56 0 76 0 C76 30.03 76 60.06 76 91 C70.39 91 64.78 91 59 91 C55.87094024 87.49166027 54.15955458 85.12306836 52.13378906 81.08789062 C49.85096247 76.88402908 46.98542385 73.04243235 44.25 69.125 C34.69126077 55.17862248 25.36363277 41.07773755 16 27 C15.67 48.12 15.34 69.24 15 91 C10.05 91 5.1 91 0 91 C0 60.97 0 30.94 0 0 Z " fill="#012851" transform="translate(436,720)"/>
<path d="M0 0 C6.75709433 5.52853172 11.82131056 12.67707035 13.05151367 21.46679688 C13.18669019 23.69558529 13.21803412 25.89240294 13.1875 28.125 C13.17920166 28.91181152 13.17090332 29.69862305 13.16235352 30.50927734 C12.88815542 40.01155861 10.40596229 47.63705214 3.734375 54.59375 C-4.64901339 61.85495255 -14.09588812 63.82577059 -24.9375 63.625 C-34.39757772 62.73253984 -42.90798312 58.52485434 -49.00390625 51.20703125 C-55.78589701 41.71224419 -56.55033806 30.647824 -55.25 19.3125 C-53.31836325 11.53421274 -49.81363324 5.04588935 -43.25 0.3125 C-30.06239446 -7.48202612 -13.10829974 -9.05978532 0 0 Z " fill="#022852" transform="translate(579.25,749.6875)"/>
<path d="M0 0 C7.34309396 4.2483034 10.53184392 9.51407296 14.0390625 17.1796875 C15.0390625 21.1796875 15.0390625 21.1796875 15.0390625 35.1796875 C-0.8009375 35.1796875 -16.6409375 35.1796875 -32.9609375 35.1796875 C-29.84592069 45.41823137 -29.84592069 45.41823137 -22.9609375 51.1796875 C-16.75559809 53.24813397 -9.4142637 53.28862946 -3.4609375 50.4296875 C-0.53515106 48.72297875 1.82315023 46.76491848 4.0390625 44.1796875 C7.86699118 45.739214 10.40266114 48.01600586 13.0390625 51.1796875 C12.85173966 53.83967189 12.20356336 54.99311945 10.4375 56.99609375 C1.91222541 64.35284615 -6.0595976 66.57491817 -17.3515625 66.38671875 C-27.13147491 65.61076762 -34.07900268 61.31744423 -40.75 54.296875 C-48.23368432 45.19111132 -49.00510422 34.61695549 -47.9609375 23.1796875 C-46.27162048 14.37271478 -41.62451113 8.05674096 -34.9609375 2.1796875 C-24.93118987 -4.37955922 -10.83436118 -5.25412164 0 0 Z " fill="#022751" transform="translate(382.9609375,746.8203125)"/>
<path d="M0 0 C7.53485854 4.94089084 11.1979033 11.5937099 14 20 C14 24.95 14 29.9 14 35 C-1.84 35 -17.68 35 -34 35 C-31.29256035 44.74975714 -31.29256035 44.74975714 -25 50 C-19.13171926 52.68798766 -12.85735965 53.24306939 -6.6484375 51.2421875 C-2.79472824 49.40914976 0.19721568 47.26991504 3 44 C6.21043882 45.38188453 8.04936365 46.92421903 10.25 49.625 C10.77078125 50.25664063 11.2915625 50.88828125 11.828125 51.5390625 C12.40820312 52.26222656 12.40820312 52.26222656 13 53 C6.16456412 60.60442242 -1.31419818 65.27117397 -11.71875 66.2578125 C-22.23513449 66.66437376 -30.88715941 63.82340271 -38.9921875 57.0546875 C-46.13381082 49.74633368 -49.02538697 41.30137468 -49.375 31.25 C-49.20408101 21.18714427 -46.17645426 12.23982251 -39 5 C-28.25495713 -3.66162343 -12.65672777 -6.96244357 0 0 Z " fill="#022851" transform="translate(752,747)"/>
<path d="M0 0 C3.80040329 2.73883813 6.81866261 5.72585275 9.53515625 9.57421875 C5.08015625 14.02921875 5.08015625 14.02921875 0.53515625 18.57421875 C-2.23177083 16.78385417 -4.99869792 14.99348958 -7.765625 13.203125 C-11.89170827 10.71314421 -15.08686908 10.36504429 -19.83984375 10.26171875 C-20.96132813 10.22433594 -22.0828125 10.18695312 -23.23828125 10.1484375 C-27.11869961 10.66050239 -28.700468 11.86513052 -31.46484375 14.57421875 C-33.04382428 17.73217982 -33.28412546 21.18092511 -32.46484375 24.57421875 C-28.94771362 28.98905447 -25.13003466 30.82978072 -19.90234375 32.57421875 C-18.4747768 33.08328124 -17.04769703 33.59371187 -15.62109375 34.10546875 C-14.91855469 34.35296875 -14.21601563 34.60046875 -13.4921875 34.85546875 C5.22378925 41.4908054 5.22378925 41.4908054 9.97265625 50.82421875 C12.64284908 57.72510672 12.38280007 63.92241903 9.84765625 70.82421875 C6.27051492 78.76100108 1.37469336 83.05414037 -6.46484375 86.57421875 C-16.72824035 89.568997 -30.29872263 88.9839095 -39.83203125 84.28515625 C-44.52577719 81.23491779 -48.54594482 77.55380859 -52.46484375 73.57421875 C-51.05639657 70.3589757 -49.36139589 68.25238007 -46.83984375 65.82421875 C-46.20820313 65.210625 -45.5765625 64.59703125 -44.92578125 63.96484375 C-44.20261719 63.27648437 -44.20261719 63.27648437 -43.46484375 62.57421875 C-40.51672966 63.93388113 -38.16462845 65.52755097 -35.65234375 67.57421875 C-29.18366016 72.45849181 -22.40637003 73.4129278 -14.46484375 72.57421875 C-10.81098884 71.31197796 -9.05097864 70.27758062 -6.58984375 67.32421875 C-5.12767348 63.75002475 -4.91770922 61.40416045 -5.46484375 57.57421875 C-10.17221114 50.82699215 -18.5879967 49.15954195 -26.06762695 46.82080078 C-34.24888352 44.22587376 -42.40061858 41.59791675 -46.96484375 33.82421875 C-47.45984375 32.75171875 -47.95484375 31.67921875 -48.46484375 30.57421875 C-48.79484375 29.91421875 -49.12484375 29.25421875 -49.46484375 28.57421875 C-50.35541436 19.82118193 -49.68617703 12.80767559 -44.46484375 5.57421875 C-33.03715503 -7.87012092 -14.708301 -8.50797126 0 0 Z " fill="#032852" transform="translate(290.46484375,836.42578125)"/>
<path d="M0 0 C8.67546897 5.34564181 12.73180993 12.29660534 15.3125 22 C15.3125 26.62 15.3125 31.24 15.3125 36 C-0.5275 36 -16.3675 36 -32.6875 36 C-28.84489341 46.28864775 -28.84489341 46.28864775 -20.6875 52 C-12.71202209 52.63100409 -6.14383817 53.05278639 0.3125 48 C2.66909368 45.89719366 2.66909368 45.89719366 4.3125 44 C8.14042868 45.5595265 10.67609864 47.83631836 13.3125 51 C13.01698889 54.32285829 11.80338833 55.87813216 9.3125 58 C8.508125 58.7115625 8.508125 58.7115625 7.6875 59.4375 C0.79644122 63.9710913 -5.40761947 65.70537665 -13.625 65.5625 C-14.50236816 65.55371826 -15.37973633 65.54493652 -16.28369141 65.53588867 C-23.05831757 65.32241049 -28.16272372 64.09242687 -33.6875 60 C-34.76 59.278125 -35.8325 58.55625 -36.9375 57.8125 C-44.25480476 50.32889286 -47.59078534 42.05401714 -48.0625 31.75 C-47.84741819 22.05787591 -44.47869442 12.97810803 -37.6875 6 C-27.80196969 -2.85743515 -12.39936369 -5.67428508 0 0 Z " fill="#042952" transform="translate(487.6875,859)"/>
<path d="M0 0 C8.19131507 5.0332177 12.69136302 11.87844331 15.3125 21 C15.3125 25.95 15.3125 30.9 15.3125 36 C-0.1975 36 -15.7075 36 -31.6875 36 C-28.92967735 45.84094665 -28.92967735 45.84094665 -22.16796875 51.26171875 C-15.90089479 53.12703683 -9.34353325 52.90115414 -3.1875 50.8125 C-0.3801749 48.7771893 1.96811462 46.55124291 4.3125 44 C7.52293882 45.38188453 9.36186365 46.92421903 11.5625 49.625 C12.08328125 50.25664063 12.6040625 50.88828125 13.140625 51.5390625 C13.72070312 52.26222656 13.72070312 52.26222656 14.3125 53 C7.28337983 61.08937852 -0.25193315 65.26277399 -11.01171875 66.203125 C-22.34837676 66.42798433 -30.13321552 63.05360997 -38.375 55.44140625 C-45.4490939 48.06666336 -47.30791354 38.95742288 -47.23486328 28.99902344 C-46.84342086 20.13338157 -43.55065684 12.59197225 -37.6875 6 C-35.50390625 4.26953125 -35.50390625 4.26953125 -33.25 2.8125 C-32.50878906 2.32394531 -31.76757812 1.83539062 -31.00390625 1.33203125 C-22.25733319 -3.697617 -9.25611102 -4.24238422 0 0 Z " fill="#042952" transform="translate(728.6875,859)"/>
<path d="M0 0 C4.62 0 9.24 0 14 0 C14.33 10.23 14.66 20.46 15 31 C17.97 28.525 17.97 28.525 21 26 C27.51951574 22.47882129 37.63841929 22.82548409 44.68359375 24.72265625 C50.63670242 27.5022741 53.88848852 31.87762564 56.37149048 37.81814575 C57.66762876 42.31765565 57.36096336 46.97700627 57.29296875 51.62109375 C57.28872391 52.72099136 57.28447906 53.82088898 57.28010559 54.95411682 C57.26338402 58.44883245 57.22574295 61.94296021 57.1875 65.4375 C57.17244478 67.81444477 57.15875784 70.19139862 57.14648438 72.56835938 C57.1135017 78.37913093 57.06176365 84.18946597 57 90 C52.38 90 47.76 90 43 90 C42.98541748 88.72882324 42.97083496 87.45764648 42.95581055 86.14794922 C42.89770193 81.41768708 42.82046952 76.6878947 42.73754883 71.95800781 C42.70435859 69.9134892 42.67630837 67.86888026 42.65356445 65.82421875 C42.61991007 62.87981794 42.56758834 59.93624046 42.51171875 56.9921875 C42.50532883 56.0825827 42.4989389 55.17297791 42.49235535 54.23580933 C42.3743886 49.10787216 41.89769199 45.41507763 39 41 C34.55318187 37.89756875 30.28025739 37.08123521 25 38 C20.07175257 40.27457574 18.08824329 43.00839654 15.8338623 47.71655273 C14.40803348 51.62104022 14.39669746 55.41093841 14.390625 59.53125 C14.37408875 60.40777222 14.35755249 61.28429443 14.34051514 62.18737793 C14.29233497 64.95832535 14.27073153 67.72872523 14.25 70.5 C14.22181516 72.39065211 14.19188424 74.28127904 14.16015625 76.171875 C14.08658445 80.78120485 14.03682732 85.39023608 14 90 C9.38 90 4.76 90 0 90 C0 60.3 0 30.6 0 0 Z " fill="#01264F" transform="translate(375,833)"/>
<path d="M0 0 C4.95 0 9.9 0 15 0 C15.01458252 1.27117676 15.02916504 2.54235352 15.04418945 3.85205078 C15.10229807 8.58231292 15.17953048 13.3121053 15.26245117 18.04199219 C15.29564141 20.0865108 15.32369163 22.13111974 15.34643555 24.17578125 C15.38008993 27.12018206 15.43241166 30.06375954 15.48828125 33.0078125 C15.49467117 33.9174173 15.5010611 34.82702209 15.50764465 35.76419067 C15.64582997 41.77101591 16.41486753 46.38158257 20.8203125 50.84375 C25.22905732 53.18243901 30.17576747 52.69009743 35 52 C38.38080128 50.43218567 40.334443 48.2279078 42.12255859 44.92895508 C43.3804912 40.72989622 43.35762276 36.68693185 43.4140625 32.32421875 C43.43342865 31.3990596 43.4527948 30.47390045 43.4727478 29.52070618 C43.53235254 26.57639683 43.57885248 23.63204798 43.625 20.6875 C43.66319736 18.68683225 43.70225012 16.68618064 43.7421875 14.68554688 C43.83803841 9.7904962 43.92214 4.89536855 44 0 C48.95 0 53.9 0 59 0 C59 21.45 59 42.9 59 65 C54.05 65 49.1 65 44 65 C43.505 62.03 43.505 62.03 43 59 C42.57589844 59.40992188 42.15179687 59.81984375 41.71484375 60.2421875 C35.820661 65.65706308 30.2558922 67.48619671 22.2578125 67.2421875 C14.70943795 66.43250026 8.8779339 62.74153191 4 57 C0.3094172 49.76798268 -0.56473824 42.87032457 -0.390625 34.86328125 C-0.38496521 33.85782761 -0.37930542 32.85237396 -0.37347412 31.81645203 C-0.35132705 28.64795525 -0.30117312 25.48064703 -0.25 22.3125 C-0.22990694 20.14650086 -0.21166113 17.98048376 -0.1953125 15.81445312 C-0.1515336 10.54252032 -0.08265966 5.27146069 0 0 Z " fill="#052B55" transform="translate(588,858)"/>
<path d="M0 0 C3.1989176 2.27251106 5.27017639 4.47753022 7.44140625 7.734375 C6.06452922 8.96426515 4.66404792 10.16777078 3.25390625 11.359375 C2.47660156 12.03226563 1.69929688 12.70515625 0.8984375 13.3984375 C-1.55859375 14.734375 -1.55859375 14.734375 -4.046875 14.0703125 C-4.87574219 13.62945313 -5.70460938 13.18859375 -6.55859375 12.734375 C-12.20582166 10.18634577 -17.43783669 10.06167307 -23.55859375 10.734375 C-28.03730031 12.89375138 -30.74057563 15.66390439 -33.55859375 19.734375 C-35.51726478 25.61038809 -35.6676662 33.12988953 -33.83984375 39.0703125 C-31.26206099 43.83089519 -27.65690181 47.03493898 -22.55859375 48.734375 C-12.7552687 49.6866088 -8.33985223 47.57031886 -0.55859375 41.734375 C2.08140625 44.374375 4.72140625 47.014375 7.44140625 49.734375 C5.72923731 53.15871287 4.97867287 54.45868854 2.25390625 56.796875 C1.70347656 57.28285156 1.15304687 57.76882813 0.5859375 58.26953125 C-7.68639954 63.9200347 -16.88401038 64.03036741 -26.55859375 62.734375 C-35.28213888 60.20636631 -41.39630586 55.09311711 -46.55859375 47.734375 C-47.01234375 47.10402344 -47.46609375 46.47367188 -47.93359375 45.82421875 C-52.24139271 38.3005282 -51.70374897 28.0815254 -50.55859375 19.734375 C-47.79633282 10.08209718 -41.7494961 3.53751222 -33.3203125 -1.640625 C-22.58129454 -6.83867067 -10.14915487 -5.79951707 0 0 Z " fill="#032851" transform="translate(359.55859375,861.265625)"/>
<path d="M0 0 C4.95 0 9.9 0 15 0 C15 30.03 15 60.06 15 91 C10.05 91 5.1 91 0 91 C0 60.97 0 30.94 0 0 Z " fill="#022751" transform="translate(679,720)"/>
<path d="M0 0 C4.95 0 9.9 0 15 0 C15 29.7 15 59.4 15 90 C10.05 90 5.1 90 0 90 C0 60.3 0 30.6 0 0 Z " fill="#052953" transform="translate(658,833)"/>
<path d="M0 0 C0 5.28 0 10.56 0 16 C-2.0109375 15.87625 -2.0109375 15.87625 -4.0625 15.75 C-9.24693979 15.76630327 -11.84183752 16.90176129 -16 20 C-20.4741144 25.76925278 -21.16675597 30.27830788 -21.31640625 37.38671875 C-21.33718735 38.20372757 -21.35796844 39.02073639 -21.37937927 39.86250305 C-21.44473079 42.47075034 -21.50369273 45.07909775 -21.5625 47.6875 C-21.60569892 49.45639054 -21.64931365 51.22527097 -21.69335938 52.99414062 C-21.80039743 57.32932463 -21.90170544 61.66460929 -22 66 C-26.95 66 -31.9 66 -37 66 C-37 44.55 -37 23.1 -37 1 C-32.05 1 -27.1 1 -22 1 C-21.67 2.98 -21.34 4.96 -21 7 C-20.52949219 6.57847656 -20.05898438 6.15695312 -19.57421875 5.72265625 C-18.95160156 5.17480469 -18.32898438 4.62695312 -17.6875 4.0625 C-17.07261719 3.51722656 -16.45773437 2.97195313 -15.82421875 2.41015625 C-11.21962629 -1.14928246 -5.51804131 -0.06491813 0 0 Z " fill="#012C57" transform="translate(790,857)"/>
<path d="M0 0 C4.9022646 3.40157136 6.61360341 7.46520614 7.72265625 13.1953125 C8.28757243 19.82564449 8.36539783 26.40234151 4.72265625 32.1953125 C1.22367353 35.90488214 -2.11791796 39.02643433 -7.32421875 39.43359375 C-17.33450159 39.63422178 -17.33450159 39.63422178 -21.90234375 37.5078125 C-28.07777447 31.49489312 -30.29323747 26.4122738 -30.65234375 17.7578125 C-30.51892284 11.67882251 -29.02487908 7.14609017 -24.8515625 2.6640625 C-17.41008006 -3.95058856 -8.62848935 -4.90605955 0 0 Z " fill="#F4F2EF" transform="translate(569.27734375,759.8046875)"/>
<path d="M0 0 C5.18513783 2.63726838 7.9554544 6.91323821 9.75 12.296875 C10.36361765 20.21354867 10.86610972 27.79972953 5.75 34.296875 C2.1305162 38.14862514 -1.15484274 40.00424195 -6.3984375 40.5 C-11.46979352 40.60676539 -14.94500335 40.26253936 -19.25 37.296875 C-23.72500644 32.95064572 -26.83294342 28.81275899 -27.5859375 22.46484375 C-27.68870772 14.62347582 -26.86738181 9.43864386 -21.66015625 3.4765625 C-15.58177145 -2.04924186 -7.68378937 -2.40118418 0 0 Z " fill="#F3F2EF" transform="translate(644.25,758.703125)"/>
<path d="M0 0 C4.86036565 2.84285538 7.8315141 6.44675098 10.6875 11.25 C12.14849883 17.53229497 12.02325377 24.05886061 9.50390625 30.046875 C6.86817775 34.22947367 2.72614324 37.73067838 -1.6875 39.9375 C-7.89414192 40.46486173 -13.46858332 40.69997482 -18.6875 36.9375 C-24.85235647 30.78718328 -25.97839653 26.39977827 -26.0065918 17.6394043 C-25.90304461 12.11666507 -25.17097994 9.17416479 -21.6875 4.9375 C-14.92011287 -1.3223331 -8.80759174 -2.53778067 0 0 Z " fill="#F4F2F0" transform="translate(550.6875,871.0625)"/>
<path d="M0 0 C5.6925 -0.12375 5.6925 -0.12375 11.5 -0.25 C12.68013672 -0.28641602 13.86027344 -0.32283203 15.07617188 -0.36035156 C22.75500256 -0.44071745 27.98270361 0.61040617 34 5.6875 C36.0186277 10.35557656 35.70515292 15.19794255 33.875 19.875 C30.67917676 23.496933 26.6556111 25.06621439 22 26 C20.26714352 26.07952806 18.53152614 26.10774143 16.796875 26.09765625 C15.91354492 26.09515869 15.03021484 26.09266113 14.12011719 26.09008789 C13.00797852 26.08098389 11.89583984 26.07187988 10.75 26.0625 C7.2025 26.041875 3.655 26.02125 0 26 C0 17.42 0 8.84 0 0 Z " fill="#F4F3F0" transform="translate(277,772)"/>
<path d="M0 0 C0.66 0 1.32 0 2 0 C5.00817048 6.66351708 4.9048086 13.6804811 2.9375 20.6875 C-0.06046794 28.48221664 -5.6345225 33.28984749 -12.88671875 37.08984375 C-20.14744761 40.21692291 -28.91470446 40.32393837 -36.375 37.90625 C-45.27683508 33.72238751 -50.60805526 28.43237868 -54.30859375 19.328125 C-56.32256712 12.54661015 -55.1494176 7.16760946 -52 1 C-49.98691584 4.01962624 -49.70615947 5.22829072 -49.25 8.6875 C-47.9455126 15.66854584 -44.49668061 20.02346119 -39 24.375 C-32.410561 27.94427946 -26.59956669 29.0471636 -19.2890625 27.3828125 C-12.29870966 25.21867587 -7.95207324 22.18781753 -4 16 C-1.31076837 10.86057956 -0.51163437 5.73030496 0 0 Z " fill="#F3F2F0" transform="translate(431,243)"/>
<path d="M0 0 C0.66 0.33 1.32 0.66 2 1 C4.30330149 7.90990446 3.73205158 16.14259316 1.09765625 22.90625 C-2.95376716 30.63423201 -9.57830292 35.92674769 -17.86328125 38.6015625 C-27.12327829 40.32828955 -35.16414778 39.49526406 -43.3671875 34.8359375 C-49.76537086 30.37429629 -54.37975709 24.73629497 -56 17 C-56.75466985 10.8563497 -55.79869566 6.48077899 -53 1 C-52.67 1 -52.34 1 -52 1 C-51.85304688 1.845625 -51.70609375 2.69125 -51.5546875 3.5625 C-49.74624116 12.70866538 -47.35938391 18.54882107 -40 24.375 C-33.18459906 28.06667551 -27.00971873 29.21029902 -19.4453125 27.3828125 C-12.93387924 25.14636278 -8.65461001 21.8512639 -5 16 C-2.61745784 10.81361249 -1.03049918 5.60712788 0 0 Z " fill="#F1F1EF" transform="translate(644,243)"/>
<path d="M0 0 C3.63 0 7.26 0 11 0 C11 20.46 11 40.92 11 62 C7.37 62 3.74 62 0 62 C-0.33 59.03 -0.66 56.06 -1 53 C-1.66 53 -2.32 53 -3 53 C-4.19211438 49.42365687 -4.25926574 46.75935317 -4 43 C-3.51039795 42.28175049 -3.0207959 41.56350098 -2.51635742 40.82348633 C-0.4210154 36.92191968 -0.52290949 33.5638238 -0.48828125 29.19921875 C-0.46135445 27.9446563 -0.46135445 27.9446563 -0.43388367 26.66474915 C-0.37990491 24.00571666 -0.34592539 21.34686239 -0.3125 18.6875 C-0.27931589 16.87953256 -0.24482522 15.0715886 -0.20898438 13.26367188 C-0.12418576 8.84257676 -0.05731559 4.42153336 0 0 Z " fill="#002E59" transform="translate(634,860)"/>
<path d="M0 0 C3.320625 -0.061875 6.64125 -0.12375 10.0625 -0.1875 C11.09511963 -0.21481201 12.12773926 -0.24212402 13.19165039 -0.27026367 C20.12952752 -0.33250179 25.10420291 0.40120774 30.4375 5.1875 C32.51721086 8.93097955 32.68836567 11.81031759 32 16 C30.6849625 19.28759375 29.53805633 20.63185619 26.625 22.625 C21.43133843 24.59500956 16.62252893 24.31850396 11.125 24.1875 C7.45375 24.125625 3.7825 24.06375 0 24 C0 16.08 0 8.16 0 0 Z " fill="#F3F2EF" transform="translate(277,734)"/>
<path d="M0 0 C3.98816702 2.76345431 5.81679322 5.50723446 7.75 9.9375 C7.75 11.2575 7.75 12.5775 7.75 13.9375 C-3.14 13.9375 -14.03 13.9375 -25.25 13.9375 C-24.10093481 7.04310885 -22.18840558 4.54808851 -17.25 -0.0625 C-11.71809969 -3.46674634 -5.51275698 -3.12081587 0 0 Z " fill="#F1F0EE" transform="translate(744.25,757.0625)"/>
<path d="M0 0 C3.67781385 2.42579211 6.66829063 5.13084585 8.9375 8.9375 C9.4325 11.9075 9.4325 11.9075 9.9375 14.9375 C-0.9525 14.9375 -11.8425 14.9375 -23.0625 14.9375 C-22.10897561 9.21635366 -21.66902689 7.19135222 -18.0625 2.9375 C-12.27528308 -1.13871366 -6.83699631 -2.37201913 0 0 Z " fill="#F2F1EF" transform="translate(374.0625,756.0625)"/>
<path d="M0 0 C4.38805162 2.19402581 7.34717236 4.87337922 10 9 C10.495 11.97 10.495 11.97 11 15 C0.11 15 -10.78 15 -22 15 C-18.02815468 4.40841248 -18.02815468 4.40841248 -12.14453125 0.890625 C-8.2021513 -0.74664755 -4.18309724 -0.5361248 0 0 Z " fill="#F3F3F1" transform="translate(719,868)"/>
<path d="M0 0 C6.38053439 3.55837495 7.21364 6.68523999 9.25 13.8125 C-1.64 13.8125 -12.53 13.8125 -23.75 13.8125 C-20.32142857 3.52678571 -20.32142857 3.52678571 -14.75 -0.1875 C-9.50483528 -1.93588824 -5.17489039 -1.63871529 0 0 Z " fill="#F4F3F1" transform="translate(479.75,869.1875)"/>
<path d="M0 0 C1.1127832 -0.01836914 1.1127832 -0.01836914 2.24804688 -0.03710938 C4.18763629 -0.04238478 6.1267371 0.06561098 8.0625 0.1875 C10.68949753 2.81449753 10.3031052 4.68776553 10.32244873 8.26367188 C10.31401947 9.5409314 10.31401947 9.5409314 10.30541992 10.84399414 C10.30731827 11.74000839 10.30921661 12.63602264 10.31117249 13.55918884 C10.31488698 16.53043274 10.30416727 19.50143396 10.29296875 22.47265625 C10.29177731 24.53006461 10.29132371 26.58747352 10.2915802 28.6448822 C10.29001422 32.95998532 10.28171519 37.27500561 10.26831055 41.59008789 C10.2513099 47.13443512 10.24749644 52.67869132 10.24825573 58.22306156 C10.24798444 62.47196835 10.24251006 66.72085505 10.23525429 70.96975517 C10.23206168 73.01479375 10.23009884 75.05983462 10.22936058 77.10487556 C10.22720386 79.95675704 10.21847451 82.80853993 10.20776367 85.66040039 C10.20844345 86.94069626 10.20844345 86.94069626 10.20913696 88.24685669 C10.1769742 94.0730258 10.1769742 94.0730258 9.0625 95.1875 C7.71982587 95.27381874 6.37275678 95.29456473 5.02734375 95.28515625 C4.21845703 95.28193359 3.40957031 95.27871094 2.57617188 95.27539062 C1.72603516 95.26701172 0.87589844 95.25863281 0 95.25 C-0.85400391 95.24548828 -1.70800781 95.24097656 -2.58789062 95.23632812 C-4.70445663 95.22450373 -6.82098685 95.20656769 -8.9375 95.1875 C-8.9375 94.1975 -8.9375 93.2075 -8.9375 92.1875 C-3.3275 92.5175 2.2825 92.8475 8.0625 93.1875 C8.0625 63.1575 8.0625 33.1275 8.0625 2.1875 C2.7825 2.1875 -2.4975 2.1875 -7.9375 2.1875 C-7.9375 21.9875 -7.9375 41.7875 -7.9375 62.1875 C-8.2675 62.1875 -8.5975 62.1875 -8.9375 62.1875 C-8.96062764 54.25136213 -8.97841723 46.31523824 -8.98931217 38.37907505 C-8.99454008 34.69435502 -9.00163605 31.00965797 -9.01293945 27.32495117 C-9.02377162 23.77179169 -9.02977753 20.21865437 -9.03237724 16.66547966 C-9.0342309 15.30704334 -9.03785038 13.94860829 -9.04323006 12.59018135 C-9.05044475 10.69367777 -9.05090809 8.79715207 -9.05102539 6.90063477 C-9.053246 5.81919693 -9.05546661 4.73775909 -9.05775452 3.62355042 C-8.79992773 -1.59936403 -4.13468878 0.00357363 0 0 Z " fill="#F7F7F8" transform="translate(503.9375,717.8125)"/>
<path d="M0 0 C42 0 42 0 45 2 C30.81 1.67 16.62 1.34 2 1 C2 30.37 2 59.74 2 90 C16.19 90 30.38 90 45 90 C44.34 90.66 43.68 91.32 43 92 C28.81 92 14.62 92 0 92 C0 61.64 0 31.28 0 0 Z " fill="#242F47" transform="translate(261,720)"/>
<path d="M0 0 C1.12535156 0.00580078 1.12535156 0.00580078 2.2734375 0.01171875 C3.02367187 0.00785156 3.77390625 0.00398437 4.546875 0 C10.14682697 0.01010822 10.14682697 0.01010822 11.2734375 1.13671875 C11.431864 3.20756595 11.52468172 5.28349904 11.58984375 7.359375 C11.63173828 8.61943359 11.67363281 9.87949219 11.71679688 11.17773438 C11.75661346 12.51822611 11.79632564 13.85872095 11.8359375 15.19921875 C11.87911792 16.54363398 11.92273206 17.88803535 11.96679688 19.23242188 C12.07329108 22.53374215 12.1753021 25.83514111 12.2734375 29.13671875 C12.9334375 29.46671875 13.5934375 29.79671875 14.2734375 30.13671875 C12.6234375 31.78671875 10.9734375 33.43671875 9.2734375 35.13671875 C9.2734375 24.24671875 9.2734375 13.35671875 9.2734375 2.13671875 C4.6534375 2.13671875 0.0334375 2.13671875 -4.7265625 2.13671875 C-4.7265625 32.16671875 -4.7265625 62.19671875 -4.7265625 93.13671875 C-1.4265625 93.13671875 1.8734375 93.13671875 5.2734375 93.13671875 C5.2734375 93.46671875 5.2734375 93.79671875 5.2734375 94.13671875 C3.46101698 94.16359154 1.64848517 94.1830559 -0.1640625 94.19921875 C-1.17339844 94.21082031 -2.18273437 94.22242188 -3.22265625 94.234375 C-5.7265625 94.13671875 -5.7265625 94.13671875 -6.7265625 93.13671875 C-6.82711363 90.28117294 -6.86271794 87.44977852 -6.85595703 84.59375 C-6.85770935 83.69788177 -6.85946167 82.80201355 -6.86126709 81.8789978 C-6.86568697 78.90238538 -6.86274714 75.92583183 -6.859375 72.94921875 C-6.860048 70.89038074 -6.86101799 68.83154281 -6.86227417 66.77270508 C-6.86375133 62.45165248 -6.86159601 58.13062052 -6.85693359 53.80957031 C-6.8512363 48.25735329 -6.85451521 42.70518461 -6.86050606 37.15296936 C-6.86411119 32.89977654 -6.86297331 28.64659526 -6.86037827 24.3934021 C-6.85970886 22.34557082 -6.86053788 20.29773852 -6.86285782 18.24990845 C-6.86538356 15.39313967 -6.86154486 12.53645032 -6.85595703 9.6796875 C-6.85798126 8.82458588 -6.86000549 7.96948425 -6.86209106 7.08847046 C-6.83752399 0.34489752 -6.79889032 0.01227237 0 0 Z " fill="#D5DCE2" transform="translate(379.7265625,830.86328125)"/>
<path d="M0 0 C0.33 0 0.66 0 1 0 C1 30.03 1 60.06 1 91 C5.95 91 10.9 91 16 91 C16 69.55 16 48.1 16 26 C17.32 27.32 18.64 28.64 20 30 C19.67 30.66 19.34 31.32 19 32 C18.88516419 33.90391705 18.83312178 35.81175064 18.81054688 37.71899414 C18.79382935 38.9168605 18.77711182 40.11472687 18.7598877 41.34889221 C18.74631226 42.64785934 18.73273682 43.94682648 18.71875 45.28515625 C18.7007162 46.62512466 18.6821134 47.96508552 18.66296387 49.30503845 C18.59309919 54.28134122 18.5336591 59.25775891 18.47393799 64.23419189 C18.42308007 68.44022458 18.36828459 72.64616921 18.30812073 76.85207939 C18.2814695 78.83135476 18.26076617 80.81070729 18.2401123 82.79005432 C18.22339478 83.98476852 18.20667725 85.17948273 18.18945312 86.41040039 C18.17066101 87.99686119 18.17066101 87.99686119 18.15148926 89.6153717 C18 92 18 92 17 93 C11.39 93 5.78 93 0 93 C0 62.31 0 31.62 0 0 Z " fill="#C4CDD6" transform="translate(435,720)"/>
<path d="M0 0 C4.95 0 9.9 0 15 0 C15 21.45 15 42.9 15 65 C10.38 65 5.76 65 1 65 C1 62.36 1 59.72 1 57 C1.33 57 1.66 57 2 57 C2 59.31 2 61.62 2 64 C5.63 64 9.26 64 13 64 C13 43.54 13 23.08 13 2 C9.37 2 5.74 2 2 2 C2.01047363 3.13542236 2.02094727 4.27084473 2.03173828 5.44067383 C2.06792055 9.65060273 2.09089402 13.86051787 2.10986328 18.07055664 C2.11992491 19.89317129 2.1335756 21.71576979 2.15087891 23.53833008 C2.17512021 26.15710435 2.18648138 28.77566531 2.1953125 31.39453125 C2.20563507 32.21025101 2.21595764 33.02597076 2.22659302 33.8664093 C2.2273686 37.77130756 2.21650661 39.67524008 0 43 C0 28.81 0 14.62 0 0 Z " fill="#061139" transform="translate(632,858)"/>
<path d="M0 0 C4.62 0 9.24 0 14 0 C14 2.64 14 5.28 14 8 C13.67 8 13.34 8 13 8 C13 6.02 13 4.04 13 2 C9.37 2 5.74 2 2 2 C2 22.46 2 42.92 2 64 C5.63 64 9.26 64 13 64 C12.98952637 62.98574951 12.97905273 61.97149902 12.96826172 60.92651367 C12.93206411 57.16385426 12.90910044 53.40121024 12.89013672 49.63842773 C12.88007858 48.00982068 12.86643042 46.38123168 12.84912109 44.75268555 C12.82486426 42.41190128 12.81351517 40.07135576 12.8046875 37.73046875 C12.79436493 37.00224411 12.78404236 36.27401947 12.77340698 35.52372742 C12.77257751 31.78724931 12.87116704 30.19324944 15 27 C15 39.54 15 52.08 15 65 C10.05 65 5.1 65 0 65 C0 43.55 0 22.1 0 0 Z " fill="#0D1C40" transform="translate(753,858)"/>
<path d="M0 0 C1.12535156 0.00580078 1.12535156 0.00580078 2.2734375 0.01171875 C3.02367187 0.00785156 3.77390625 0.00398437 4.546875 0 C10.14682697 0.01010822 10.14682697 0.01010822 11.2734375 1.13671875 C11.33860813 3.96793743 11.33840976 6.77343917 11.29516602 9.60375977 C11.28555847 10.49148071 11.27595093 11.37920166 11.26605225 12.29382324 C11.23293836 15.24283475 11.19265355 18.19170377 11.15234375 21.140625 C11.12805473 23.17943308 11.10421057 25.21824651 11.08079529 27.25706482 C11.01783314 32.63461373 10.94880108 38.01206853 10.87854004 43.38952637 C10.80796586 48.87227069 10.74308367 54.35508198 10.67773438 59.83789062 C10.54856578 70.60424025 10.41298999 81.37049907 10.2734375 92.13671875 C9.9434375 92.13671875 9.6134375 92.13671875 9.2734375 92.13671875 C9.2734375 62.43671875 9.2734375 32.73671875 9.2734375 2.13671875 C4.6534375 2.13671875 0.0334375 2.13671875 -4.7265625 2.13671875 C-4.7265625 13.35671875 -4.7265625 24.57671875 -4.7265625 36.13671875 C-9.7265625 31.13671875 -9.7265625 31.13671875 -10.7265625 29.13671875 C-9.7365625 29.46671875 -8.7465625 29.79671875 -7.7265625 30.13671875 C-7.70150635 29.26345947 -7.6764502 28.3902002 -7.65063477 27.49047852 C-7.55568541 24.26069323 -7.45644221 21.03107721 -7.35424805 17.80151367 C-7.31084816 16.40182676 -7.26917686 15.00208516 -7.22924805 13.60229492 C-7.17166805 11.5941038 -7.1074225 9.58610726 -7.04296875 7.578125 C-7.00631104 6.36842041 -6.96965332 5.15871582 -6.93188477 3.91235352 C-6.56772124 -1.01056571 -4.43662468 0.00800835 0 0 Z " fill="#C7D1D8" transform="translate(566.7265625,830.86328125)"/>
<path d="M0 0 C82.17 0.495 82.17 0.495 166 1 C166 1.33 166 1.66 166 2 C147.3278723 2.95380768 128.68392024 3.13739853 109.99314952 3.10139394 C106.10819229 3.09502045 102.22323374 3.0945458 98.33827209 3.09336853 C91.02570003 3.09029554 83.71314343 3.08213824 76.40057808 3.07201904 C68.05674933 3.06073047 59.71291972 3.05531578 51.36908519 3.05032361 C34.24604794 3.03995085 17.12302562 3.02243204 0 3 C0 2.01 0 1.02 0 0 Z " fill="#EDEBE9" transform="translate(321,307)"/>
<path d="M0 0 C4.29 0 8.58 0 13 0 C13 14.52 13 29.04 13 44 C12.67 44 12.34 44 12 44 C11.03200408 39.15667095 10.86877914 34.45861984 10.90234375 29.5390625 C10.9037587 28.74849457 10.90517365 27.95792664 10.90663147 27.1434021 C10.91219496 24.63722834 10.92474056 22.13114642 10.9375 19.625 C10.94251972 17.91797005 10.9470818 16.21093868 10.95117188 14.50390625 C10.96215241 10.33590252 10.97939161 6.16796679 11 2 C7.37 2 3.74 2 0 2 C0 1.34 0 0.68 0 0 Z " fill="#021039" transform="translate(590,858)"/>
<path d="M0 0 C6.93 0 13.86 0 21 0 C19 2 19 2 15.0859375 2.1953125 C13.51549182 2.18386556 11.94514302 2.15788715 10.375 2.125 C6.229375 2.063125 6.229375 2.063125 2 2 C2 8.93 2 15.86 2 23 C7.94 23 13.88 23 20 23 C20 23.33 20 23.66 20 24 C13.4 24 6.8 24 0 24 C0 16.08 0 8.16 0 0 Z " fill="#FBFCFB" transform="translate(277,734)"/>
<path d="M0 0 C0.33 0.66 0.66 1.32 1 2 C0.67 2.99 0.34 3.98 0 5 C15.345 4.505 15.345 4.505 31 4 C31 4.99 31 5.98 31 7 C20.11 7 9.22 7 -2 7 C-1 1 -1 1 0 0 Z " fill="#F2F7F9" transform="translate(353,764)"/>
<path d="M0 0 C0.33 0 0.66 0 1 0 C1.01030746 0.74058151 1.02061493 1.48116302 1.03123474 2.2441864 C1.12932451 9.23287308 1.23185497 16.22147732 1.33933926 23.21002483 C1.39443855 26.80266543 1.44783721 30.39531434 1.49731445 33.98803711 C1.54515039 37.45699185 1.5974991 40.92585214 1.65294075 44.39469337 C1.68315603 46.35827285 1.70873098 48.32192195 1.73423767 50.28556824 C1.75418289 51.4864357 1.77412811 52.68730316 1.79467773 53.92456055 C1.81799416 55.50674629 1.81799416 55.50674629 1.84178162 57.12089539 C1.99139483 59.84341155 2.39029702 62.34640658 3 65 C2.34 65 1.68 65 1 65 C-1.10428779 61.55850407 -1.21780163 58.94159907 -1.13525391 54.94628906 C-1.11508209 53.72532532 -1.09491028 52.50436157 -1.0741272 51.24639893 C-1.04193085 49.93274353 -1.0097345 48.61908813 -0.9765625 47.265625 C-0.95038185 45.90372391 -0.92511592 44.54180495 -0.90072632 43.17987061 C-0.83420743 39.60236938 -0.75528675 36.02524573 -0.67376709 32.44805908 C-0.59271756 28.79494677 -0.52341816 25.14161356 -0.453125 21.48828125 C-0.31357229 14.3252532 -0.16091508 7.16258337 0 0 Z " fill="#EAEAE7" transform="translate(494,720)"/>
<path d="M0 0 C0.33 0.66 0.66 1.32 1 2 C11.23 2 21.46 2 32 2 C32 2.66 32 3.32 32 4 C21.11 4 10.22 4 -1 4 C-0.67 2.68 -0.34 1.36 0 0 Z " fill="#F2F7FA" transform="translate(720,767)"/>
<path d="M0 0 C4.29 0 8.58 0 13 0 C13 12.54 13 25.08 13 38 C12.67 38 12.34 38 12 38 C11.505 20.675 11.505 20.675 11 3 C7.37 2.67 3.74 2.34 0 2 C0 1.34 0 0.68 0 0 Z " fill="#01113E" transform="translate(634,858)"/>
<path d="M0 0 C2.33567195 3.50350792 1.92435484 4.78923816 1.29296875 8.79296875 C0.83952577 12.20890586 0.93853677 15.55805925 1 19 C0.01 19 -0.98 19 -2 19 C-3.79750058 13.60749825 -3.76681926 8.18753896 -1.5 2.9375 C-1.005 1.968125 -0.51 0.99875 0 0 Z " fill="#DDDFE2" transform="translate(379,244)"/>
<path d="M0 0 C0.33 0 0.66 0 1 0 C1 1.98 1 3.96 1 6 C8.26 6 15.52 6 23 6 C21 8 21 8 18.75341797 8.22705078 C17.84221191 8.21657715 16.93100586 8.20610352 15.9921875 8.1953125 C15.00605469 8.18886719 14.01992188 8.18242188 13.00390625 8.17578125 C11.45509766 8.15064453 11.45509766 8.15064453 9.875 8.125 C8.83472656 8.11597656 7.79445313 8.10695313 6.72265625 8.09765625 C4.14820908 8.07403747 1.57421788 8.04110149 -1 8 C-0.67 5.36 -0.34 2.72 0 0 Z " fill="#D2DAE1" transform="translate(278,790)"/>
<path d="M0 0 C15.84 0 31.68 0 48 0 C48 0.33 48 0.66 48 1 C41.64625066 1.14288284 35.29248984 1.28524624 28.9387207 1.42724609 C26.77660864 1.47562857 24.61449924 1.52413057 22.45239258 1.57275391 C19.3471749 1.6425661 16.24194791 1.71195039 13.13671875 1.78125 C12.16788254 1.80312378 11.19904633 1.82499756 10.20085144 1.84753418 C9.3001442 1.86755493 8.39943695 1.88757568 7.47143555 1.90820312 C6.28229805 1.93485046 6.28229805 1.93485046 5.06913757 1.96203613 C3.37966201 1.99303408 1.68975991 2 0 2 C0 1.34 0 0.68 0 0 Z " fill="#EBEAE7" transform="translate(350,784)"/>
<path d="M0 0 C0.66 0 1.32 0 2 0 C3.75163456 3.77222089 4.22490027 6.666639 4.125 10.8125 C4.10695313 11.78832031 4.08890625 12.76414063 4.0703125 13.76953125 C4.03550781 14.87361328 4.03550781 14.87361328 4 16 C3.67 15.01 3.34 14.02 3 13 C2.01 13 1.02 13 0 13 C-1.29676812 8.38926889 -0.71109139 4.66159911 0 0 Z " fill="#DBE2E6" transform="translate(431,243)"/>
<path d="M0 0 C0.33 0.66 0.66 1.32 1 2 C-2.8633724 6.48685613 -6.75124198 10.86926304 -11 15 C-11.598125 15.598125 -12.19625 16.19625 -12.8125 16.8125 C-13.204375 17.204375 -13.59625 17.59625 -14 18 C-14.99 17.67 -15.98 17.34 -17 17 C-11.39 11.39 -5.78 5.78 0 0 Z " fill="#D8DEE2" transform="translate(545,471)"/>
<path d="M0 0 C0.66 0.66 1.32 1.32 2 2 C1.67 3.32 1.34 4.64 1 6 C-8.57 6 -18.14 6 -28 6 C-27.67 4.35 -27.34 2.7 -27 1 C-26.67 1.99 -26.34 2.98 -26 4 C-17.75 4 -9.5 4 -1 4 C-0.67 2.68 -0.34 1.36 0 0 Z " fill="#EAEAE8" transform="translate(381,763)"/>
<path d="M0 0 C0.33 0 0.66 0 1 0 C1 3.96 1 7.92 1 12 C5.95 12 10.9 12 16 12 C16 12.33 16 12.66 16 13 C13.35448944 13.19386492 10.70882217 13.38038267 8.0625 13.5625 C7.30775391 13.61857422 6.55300781 13.67464844 5.77539062 13.73242188 C3.85254042 13.86176157 1.92610452 13.93516912 0 14 C-1 13 -1 13 -1.1328125 10.8203125 C-1.13023437 9.93085937 -1.12765625 9.04140625 -1.125 8.125 C-1.12757813 7.24070312 -1.13015625 6.35640625 -1.1328125 5.4453125 C-1 3 -1 3 0 0 Z " fill="#CBD3D9" transform="translate(601,799)"/>
<path d="M0 0 C0.66 0 1.32 0 2 0 C1.74571916 2.79409766 1.47243244 5.58400819 1.1875 8.375 C1.11724609 9.1690625 1.04699219 9.963125 0.97460938 10.78125 C0.7535771 12.86779466 0.3849376 14.93739317 0 17 C-0.99 17.66 -1.98 18.32 -3 19 C-3.02712153 17.083412 -3.04645097 15.1667127 -3.0625 13.25 C-3.07410156 12.18265625 -3.08570313 11.1153125 -3.09765625 10.015625 C-3.01510087 7.46631499 -2.74617558 5.42066409 -2 3 C-1.34 3 -0.68 3 0 3 C0 2.01 0 1.02 0 0 Z " fill="#EAECED" transform="translate(524,764)"/>
<path d="M0 0 C3.96 0 7.92 0 12 0 C7.98221956 3.01333533 7.17042203 3.38121423 2.5 3.625 C-1.38154338 3.82654522 -1.38154338 3.82654522 -5.15625 4.6484375 C-7 5 -7 5 -10 3 C-6.56484998 2.37542727 -3.50935186 2 0 2 C0 1.34 0 0.68 0 0 Z " fill="#E9ECEC" transform="translate(362,741)"/>
<path d="M0 0 C0.33 0 0.66 0 1 0 C1.33 5.61 1.66 11.22 2 17 C-0.62315032 18.31157516 -2.23033436 17.89649988 -5.125 17.5625 C-6.03507813 17.46066406 -6.94515625 17.35882812 -7.8828125 17.25390625 C-8.58148437 17.17011719 -9.28015625 17.08632813 -10 17 C-9.67 16.34 -9.34 15.68 -9 15 C-2.25 14.875 -2.25 14.875 0 16 C0 10.72 0 5.44 0 0 Z " fill="#CBD5DC" transform="translate(790,857)"/>
<path d="M0 0 C2 3 2 3 2 5 C-7.57 5 -17.14 5 -27 5 C-27 4.67 -27 4.34 -27 4 C-18.42 4 -9.84 4 -1 4 C-0.67 2.68 -0.34 1.36 0 0 Z " fill="#E9E8E7" transform="translate(750,764)"/>
<path d="M0 0 C6.88490225 -0.57374185 11.02667877 0.5246131 17 4 C17 4.33 17 4.66 17 5 C14.69 4.67 12.38 4.34 10 4 C10 3.34 10 2.68 10 2 C6.37 2 2.74 2 -1 2 C-0.67 1.34 -0.34 0.68 0 0 Z " fill="#DCE2E7" transform="translate(554,757)"/>
<path d="M0 0 C1.41623216 -0.05447047 2.83308191 -0.09300508 4.25 -0.125 C5.03890625 -0.14820313 5.8278125 -0.17140625 6.640625 -0.1953125 C9.20731941 0.0171622 10.7916067 0.71345895 13 2 C9.85069107 3.04976964 7.61185544 3.10131595 4.3125 3.0625 C3.31863281 3.05347656 2.32476563 3.04445313 1.30078125 3.03515625 C0.16189453 3.01775391 0.16189453 3.01775391 -1 3 C-0.67 2.01 -0.34 1.02 0 0 Z " fill="#E9ECEE" transform="translate(538,870)"/>
<path d="M0 0 C3.45201639 1.47721422 5.64961936 3.43794001 8.25 6.125 C8.95640625 6.84945313 9.6628125 7.57390625 10.390625 8.3203125 C11.18726563 9.15175781 11.18726563 9.15175781 12 10 C11.34 10.66 10.68 11.32 10 12 C8.33333333 10.33333333 6.66666667 8.66666667 5 7 C4.071875 6.113125 3.14375 5.22625 2.1875 4.3125 C0 2 0 2 0 0 Z " fill="#223756" transform="translate(466,457)"/>
<path d="M0 0 C5.91582159 0.69597901 10.03103464 3.71236406 13.9375 8.0625 C14.618125 9.031875 15.29875 10.00125 16 11 C15.67 11.99 15.34 12.98 15 14 C14.60167969 13.44570312 14.20335937 12.89140625 13.79296875 12.3203125 C13.26316406 11.59585938 12.73335937 10.87140625 12.1875 10.125 C11.66542969 9.40570313 11.14335938 8.68640625 10.60546875 7.9453125 C7.81236534 4.56096822 5.18867609 3.67924477 1 3 C0.67 2.01 0.34 1.02 0 0 Z " fill="#0A1D40" transform="translate(625,180)"/>
<path d="M0 0 C0.66 0.33 1.32 0.66 2 1 C1.61328125 1.40089844 1.2265625 1.80179688 0.828125 2.21484375 C-3.32668119 6.75016436 -5.79404423 11.27749121 -8 17 C-8.66 17 -9.32 17 -10 17 C-8.24757628 9.79002813 -5.20911427 5.23765736 0 0 Z " fill="#111B39" transform="translate(346,751)"/>
<path d="M0 0 C0.66 0.33 1.32 0.66 2 1 C1.835 1.99 1.67 2.98 1.5 4 C0.91525483 8.02732942 0.92867976 11.93474623 1 16 C0.67 16 0.34 16 0 16 C-0.33 14.02 -0.66 12.04 -1 10 C-1.33 10 -1.66 10 -2 10 C-1.85950482 8.52031676 -1.71245174 7.04125484 -1.5625 5.5625 C-1.48128906 4.73878906 -1.40007813 3.91507813 -1.31640625 3.06640625 C-1 1 -1 1 0 0 Z " fill="#E8EAEC" transform="translate(541,768)"/>
<path d="M0 0 C1.74991334 -0.02715383 3.49994945 -0.04646551 5.25 -0.0625 C6.71179688 -0.07990234 6.71179688 -0.07990234 8.203125 -0.09765625 C10.69783594 -0.01055042 12.68602901 0.07122724 15 1 C15.33 1.99 15.66 2.98 16 4 C13.36 3.67 10.72 3.34 8 3 C8 2.34 8 1.68 8 1 C5.36 1 2.72 1 0 1 C0 0.67 0 0.34 0 0 Z " fill="#041839" transform="translate(732,744)"/>
<path d="M0 0 C6.0546875 -0.1953125 6.0546875 -0.1953125 8 0 C8.66 0.66 9.32 1.32 10 2 C6.78548731 3.60725635 3.56387464 3.05748185 0 3 C0 2.01 0 1.02 0 0 Z " fill="#E8ECEE" transform="translate(400,870)"/>
<path d="M0 0 C0 3.49889647 -0.54120332 4.0553603 -2.75 6.625 C-3.26046875 7.23601562 -3.7709375 7.84703125 -4.296875 8.4765625 C-6.19607419 10.17538747 -7.51275949 10.5998787 -10 11 C-6.79239749 7.19364503 -3.59253891 3.45436433 0 0 Z " fill="#1E2F50" transform="translate(596,361)"/>
<path d="M0 0 C0 0.99 0 1.98 0 3 C-3.28519475 4.09506492 -5.73663415 4.09960608 -9.1875 4.0625 C-10.81751953 4.04896484 -10.81751953 4.04896484 -12.48046875 4.03515625 C-13.31191406 4.02355469 -14.14335937 4.01195312 -15 4 C-15 3.67 -15 3.34 -15 3 C-12.03 3 -9.06 3 -6 3 C-6 2.34 -6 1.68 -6 1 C-3.92446352 0.4465236 -2.15634036 0 0 0 Z " fill="#E9EBEA" transform="translate(415,270)"/>
<path d="M0 0 C2.375 0.3125 2.375 0.3125 5 1 C5.66 1.99 6.32 2.98 7 4 C7.99 4.33 8.98 4.66 10 5 C9.67 5.99 9.34 6.98 9 8 C5.7 6.02 2.4 4.04 -1 2 C-0.67 1.34 -0.34 0.68 0 0 Z " fill="#E4E8EA" transform="translate(311,721)"/>
<path d="M0 0 C3.7952131 1.49097658 5.61042731 3.75700849 8 7 C7.34 7.66 6.68 8.32 6 9 C4.99406757 7.8803014 3.9954151 6.7540588 3 5.625 C2.443125 4.99851562 1.88625 4.37203125 1.3125 3.7265625 C0 2 0 2 0 0 Z " fill="#193253" transform="translate(456,447)"/>
<path d="M0 0 C1.17539996 0.92652701 2.34010577 1.86663387 3.5 2.8125 C4.1496875 3.33457031 4.799375 3.85664062 5.46875 4.39453125 C7 6 7 6 7 9 C2.16907776 6.52260398 2.16907776 6.52260398 1.3125 3.875 C1.209375 3.25625 1.10625 2.6375 1 2 C0.34 1.67 -0.32 1.34 -1 1 C-0.67 0.67 -0.34 0.34 0 0 Z " fill="#253753" transform="translate(358,903)"/>
<path d="M0 0 C0 0.66 0 1.32 0 2 C-4.43076923 4.09230769 -4.43076923 4.09230769 -7.3125 3.625 C-7.869375 3.41875 -8.42625 3.2125 -9 3 C-7.14340032 -0.71319936 -3.69365381 -0.09982848 0 0 Z " fill="#EAECEC" transform="translate(281,906)"/>
<path d="M0 0 C4.59306496 1.4859916 7.43569245 3.85014682 11 7 C10.67 7.99 10.34 8.98 10 10 C8.33037631 8.52417192 6.6643694 7.04425109 5 5.5625 C4.071875 4.73878906 3.14375 3.91507813 2.1875 3.06640625 C1.465625 2.38449219 0.74375 1.70257812 0 1 C0 0.67 0 0.34 0 0 Z " fill="#E3E7EA" transform="translate(289,835)"/>
<path d="M0 0 C3.3 0 6.6 0 10 0 C6.99382731 3.00617269 4.17618402 2.59585316 0 3 C0 2.01 0 1.02 0 0 Z " fill="#E8EDED" transform="translate(709,868)"/>
<path d="M0 0 C3 3 3 3 3.07421875 5.91796875 C2.94660156 6.99691406 2.81898438 8.07585938 2.6875 9.1875 C2.56761719 10.27417969 2.44773437 11.36085938 2.32421875 12.48046875 C2.21722656 13.31191406 2.11023438 14.14335938 2 15 C1.67 15 1.34 15 1 15 C0.67 10.05 0.34 5.1 0 0 Z " fill="#CAD4DB" transform="translate(327,774)"/>
<path d="M0 0 C1.09570312 0.00902344 2.19140625 0.01804687 3.3203125 0.02734375 C4.16335938 0.03894531 5.00640625 0.05054688 5.875 0.0625 C5.875 0.3925 5.875 0.7225 5.875 1.0625 C5.12734375 1.11148438 4.3796875 1.16046875 3.609375 1.2109375 C2.62453125 1.28570313 1.6396875 1.36046875 0.625 1.4375 C-0.83679688 1.54191406 -0.83679688 1.54191406 -2.328125 1.6484375 C-5.02133189 2.04715249 -6.79463279 2.69757063 -9.125 4.0625 C-8.795 3.0725 -8.465 2.0825 -8.125 1.0625 C-5.36047967 -0.31976016 -3.0788637 -0.03275387 0 0 Z " fill="#EBECEB" transform="translate(735.125,740.9375)"/>
<path d="M0 0 C0.99 0.33 1.98 0.66 3 1 C3 2.32 3 3.64 3 5 C3.66 5 4.32 5 5 5 C5 6.65 5 8.3 5 10 C1.55783328 7.3401439 1.00495326 4.09711714 0 0 Z " fill="#E9ECED" transform="translate(589,261)"/>
<path d="M0 0 C-0.99 1.485 -0.99 1.485 -2 3 C-4.31 2.67 -6.62 2.34 -9 2 C-5.5647952 -0.29013653 -4.014669 -0.17842973 0 0 Z " fill="#E8EBED" transform="translate(379,812)"/>
<path d="M0 0 C4.62 0 9.24 0 14 0 C14 0.33 14 0.66 14 1 C12.22932584 1.16834933 10.45845388 1.33461909 8.6875 1.5 C7.70136719 1.5928125 6.71523438 1.685625 5.69921875 1.78125 C3 2 3 2 0 2 C0 1.34 0 0.68 0 0 Z " fill="#E1E4E4" transform="translate(350,784)"/>
<path d="M0 0 C-2.97 2.475 -2.97 2.475 -6 5 C-6.66 4.67 -7.32 4.34 -8 4 C-7.67 2.68 -7.34 1.36 -7 0 C-2.25 -1.125 -2.25 -1.125 0 0 Z " fill="#ACDBEC" transform="translate(313,226)"/>
<path d="M0 0 C0.33 0.66 0.66 1.32 1 2 C-0.4375 4.625 -0.4375 4.625 -2 7 C-2.99 6.34 -3.98 5.68 -5 5 C-3.35 3.35 -1.7 1.7 0 0 Z " fill="#00183D" transform="translate(402,415)"/>
<path d="M0 0 C0 3 0 3 -2.5 5.6875 C-3.325 6.450625 -4.15 7.21375 -5 8 C-5.66 7.67 -6.32 7.34 -7 7 C-4.69 4.69 -2.38 2.38 0 0 Z " fill="#253452" transform="translate(585,372)"/>
<path d="M0 0 C2 3 2 3 2 7 C0.68 6.67 -0.64 6.34 -2 6 C-1.34 4.02 -0.68 2.04 0 0 Z " fill="#E1E8EC" transform="translate(379,244)"/>
<path d="M0 0 C0.66 0.33 1.32 0.66 2 1 C2.75 3.4375 2.75 3.4375 3 6 C2.34 6.66 1.68 7.32 1 8 C0.34 7.67 -0.32 7.34 -1 7 C-0.67 4.69 -0.34 2.38 0 0 Z " fill="#E4E9ED" transform="translate(644,243)"/>
</svg>
